<?xml version="1.0" standalone="no"?>
<!DOCTYPE svg PUBLIC "-//W3C//DTD SVG 20010904//EN"
 "http://www.w3.org/TR/2001/REC-SVG-20010904/DTD/svg10.dtd">
<svg version="1.0" xmlns="http://www.w3.org/2000/svg"
 width="122.000000pt" height="159.000000pt" viewBox="0 0 122.000000 159.000000"
 preserveAspectRatio="xMidYMid meet">

<g transform="translate(0.000000,159.000000) scale(0.100000,-0.100000)"
fill="#000000" stroke="none">
<path d="M122 1467 l-122 -122 0 -673 0 -672 488 0 487 0 123 123 122 122 0
673 0 672 -488 0 -487 0 -123 -123z m948 -12 l-105 -105 -465 0 -465 0 105
105 105 105 465 0 465 0 -105 -105z m15 -1315 l-105 -105 0 650 0 650 103 103
102 102 3 -647 2 -648 -105 -105z m-135 1170 c0 -7 -160 -10 -460 -10 -300 0
-460 3 -460 10 0 7 160 10 460 10 300 0 460 -3 460 -10z m-320 -110 l0 -70
-300 0 -300 0 0 70 0 70 300 0 300 0 0 -70z m320 0 l0 -70 -145 0 -145 0 0 70
0 70 145 0 145 0 0 -70z m0 -600 l0 -500 -460 0 -460 0 0 500 0 500 460 0 460
0 0 -500z m0 -550 c0 -20 -7 -20 -460 -20 -453 0 -460 0 -460 20 0 20 7 20
460 20 453 0 460 0 460 -20z"/>
<path d="M87 1242 c-33 -36 -8 -92 40 -92 25 0 53 30 53 57 0 46 -62 69 -93
35z m67 -24 c8 -14 7 -21 -6 -34 -30 -30 -75 9 -48 42 16 18 39 15 54 -8z"/>
<path d="M217 1242 c-33 -36 -8 -92 40 -92 25 0 53 30 53 57 0 46 -62 69 -93
35z m67 -24 c8 -14 7 -21 -6 -34 -30 -30 -75 9 -48 42 16 18 39 15 54 -8z"/>
<path d="M390 1215 c0 -12 14 -15 70 -15 56 0 70 3 70 15 0 12 -14 15 -70 15
-56 0 -70 -3 -70 -15z"/>
<path d="M720 1175 c0 -12 16 -15 85 -15 69 0 85 3 85 15 0 12 -16 15 -85 15
-69 0 -85 -3 -85 -15z"/>
<path d="M417 986 c-129 -48 -207 -166 -194 -294 10 -96 64 -174 152 -220 41
-22 64 -27 125 -27 116 0 197 50 252 155 18 36 23 61 23 120 -1 115 -51 198
-153 250 -54 28 -152 36 -205 16z m168 -65 c79 -36 134 -117 135 -198 0 -58
-8 -73 -39 -73 -15 0 -36 -7 -48 -15 -20 -14 -24 -13 -49 10 -31 29 -60 32
-92 9 -22 -15 -24 -14 -47 10 -20 21 -33 26 -74 26 -27 0 -53 -4 -56 -10 -3
-5 -13 -10 -21 -10 -10 0 -14 13 -14 48 1 118 103 222 220 222 25 0 63 -9 85
-19z m-165 -286 c27 -29 80 -34 100 -10 17 21 32 8 17 -15 -9 -15 -9 -25 -1
-38 13 -20 35 -23 42 -4 2 6 -3 12 -12 12 -9 0 -16 4 -16 9 0 15 18 23 25 11
9 -15 57 -12 79 5 46 35 48 11 4 -35 -99 -101 -247 -90 -336 25 l-23 29 23 18
c33 25 70 22 98 -7z"/>
<path d="M357 633 c-13 -13 -7 -43 9 -43 10 0 14 6 10 15 -3 8 -1 15 4 15 6 0
10 5 10 10 0 11 -23 14 -33 3z"/>
<path d="M435 578 c6 -21 5 -22 -8 -5 -19 22 -27 22 -27 -3 0 -13 9 -22 26
-26 34 -9 49 7 35 35 -16 28 -34 27 -26 -1z"/>
<path d="M484 569 c-3 -6 0 -15 7 -20 11 -7 10 -9 -4 -9 -10 0 -15 -4 -12 -10
11 -18 55 -12 55 8 0 32 -32 53 -46 31z"/>
<path d="M787 212 c-33 -36 -8 -92 40 -92 25 0 53 30 53 57 0 46 -62 69 -93
35z m67 -24 c8 -14 7 -21 -6 -34 -30 -30 -75 9 -48 42 16 18 39 15 54 -8z"/>
</g>
</svg>
